#extradata 0:        4, 0x015a00ad
#tb 0: 1/1000
#tb 1: 16/11025
0,          0,          0,        0,     1508, 0xefceba48
1,          0,          0,       83,     5976, 0xfa2c2db9
1,         83,         83,       83,     5976, 0x256b935c
1,        166,        166,       83,     5976, 0xa78a9563
1,        249,        249,       83,     5976, 0x4ea056f4
1,        332,        332,       83,     5976, 0xda772d8d
1,        415,        415,       83,     5976, 0xafacf7c9
0,        640,        640,        0,      108, 0x06713c96, F=0x0
0,        680,        680,        0,      952, 0xd306df7e, F=0x0
0,        720,        720,        0,     2312, 0xaf316585, F=0x0
1,        498,        498,       83,     5976, 0xdeb003f4
0,        760,        760,        0,     3872, 0xfc1c527c, F=0x0
0,        800,        800,        0,       20, 0xaffc0edd, F=0x0
0,        840,        840,        0,     6600, 0xe1b66c7f, F=0x0
1,        581,        581,       28,     2016, 0xa7380d36
0,        880,        880,        0,     6868, 0xd5b3f631, F=0x0
1,        609,        609,       28,     2016, 0xbc090bac
0,        920,        920,        0,     8420, 0xf70ee33b, F=0x0
1,        637,        637,       28,     2016, 0x6f8c164c
0,        960,        960,        0,    13144, 0x9a54ef39, F=0x0
1,        665,        665,       28,     2016, 0x13b80e28
0,       1000,       1000,        0,     6340, 0xe55bf555, F=0x0
1,        693,        693,       28,     2016, 0xd40ff863
0,       1040,       1040,        0,     3736, 0x0b23f89f, F=0x0
1,        721,        721,       28,     2016, 0x4d530ed7
0,       1080,       1080,        0,     2624, 0x79e2e451, F=0x0
1,        749,        749,       30,     2160, 0x0fbc37eb
0,       1120,       1120,        0,     1860, 0x63886f11, F=0x0
1,        779,        779,      192,    13824, 0x82fb2602
0,       1160,       1160,        0,     1244, 0x74594601, F=0x0
0,       1200,       1200,        0,      564, 0xf4561dfb, F=0x0
0,       1240,       1240,        0,       80, 0xbf8e2e30, F=0x0
0,       1280,       1280,        0,       20, 0xa0990c29, F=0x0
1,        971,        971,      192,    13824, 0x08771caf
1,       1163,       1163,      192,    13824, 0xdf7d4a65
1,       1355,       1355,      193,    13896, 0x24bf3f47
1,       1548,       1548,       50,     3600, 0x9ad26b9f
1,       1598,       1598,       50,     3600, 0x8c666fd6
1,       1648,       1648,       50,     3600, 0x305c6ca1
1,       1698,       1698,       50,     3600, 0x48b04e1e
0,       2480,       2480,        0,      104, 0x12413980, F=0x0
0,       2520,       2520,        0,      796, 0x2e698ed3, F=0x0
1,       1748,       1748,       50,     3600, 0x8c915935
0,       2560,       2560,        0,     1808, 0x8b3e6e5e, F=0x0
0,       2600,       2600,        0,     4712, 0xdbd51737, F=0x0
1,       1798,       1798,       50,     3600, 0xa8f45e01
0,       2640,       2640,        0,     5548, 0xee9c831c, F=0x0
0,       2680,       2680,        0,     6152, 0x9c18ccc1, F=0x0
1,       1848,       1848,       53,     3816, 0xc64cc5ed
0,       2720,       2720,        0,     6452, 0x7860462a, F=0x0
1,       1901,       1901,       27,     1944, 0x0ac2e3f1
0,       2760,       2760,        0,     6676, 0xe1b1c9e4, F=0x0
1,       1928,       1928,       27,     1944, 0x2197dccd
0,       2800,       2800,        0,    10904, 0x0bded7b7, F=0x0
1,       1955,       1955,       27,     1944, 0x0c02e77f
0,       2840,       2840,        0,    12844, 0xe6d16cff, F=0x0
1,       1982,       1982,       27,     1944, 0x675ee06a
0,       2880,       2880,        0,    10920, 0xe114c46b, F=0x0
1,       2009,       2009,       30,     2160, 0x0d803a8b
0,       2920,       2920,        0,     5952, 0xb7464634, F=0x0
1,       2039,       2039,       93,     6696, 0xa7a0dfea
0,       2960,       2960,        0,     4732, 0x2fa2e36d, F=0x0
0,       3000,       3000,        0,     2592, 0xf54ddd57, F=0x0
0,       3040,       3040,        0,     1516, 0x4a1cd4d5, F=0x0
0,       3080,       3080,        0,      864, 0x49889afc, F=0x0
1,       2132,       2132,       93,     6696, 0x59aa3145
0,       3120,       3120,        0,      468, 0x3932e6a4, F=0x0
0,       3160,       3160,        0,      116, 0x2b8341e6, F=0x0
0,       3200,       3200,        0,       16, 0x6a3109cf, F=0x0
1,       2225,       2225,       93,     6696, 0x69be4d78
1,       2318,       2318,       93,     6696, 0x64064c67
1,       2411,       2411,       93,     6696, 0xc8536f98
1,       2504,       2504,       93,     6696, 0xc0ce5199
1,       2597,       2597,       94,     6768, 0x3b275c58
1,       2691,       2691,      123,     8856, 0x90e5b37c
0,       4000,       4000,        0,     1508, 0xefceba48
1,       2814,       2814,      123,     8856, 0x86b33366
1,       2937,       2937,      123,     8856, 0x19e18797
1,       3060,       3060,      123,     8856, 0x0a0c7fbd
1,       3183,       3183,      124,     8928, 0x4a9b2d42
0,       4640,       4640,        0,      100, 0x45023894, F=0x0
0,       4680,       4680,        0,      948, 0xa65ed345, F=0x0
0,       4720,       4720,        0,     2808, 0xd7285746, F=0x0
0,       4760,       4760,       40,     5372, 0x05794175, F=0x0
1,       3307,       3307,       21,     1512, 0xed8b3f4b
0,       4800,       4800,       40,    11596, 0x8636eca7, F=0x0
1,       3328,       3328,       21,     1512, 0xa27d3891
0,       4840,       4840,       40,    11524, 0xe1f39be3, F=0x0
1,       3349,       3349,       21,     1512, 0xb0f13eb6
0,       4880,       4880,       40,    23392, 0xab053f05, F=0x0
1,       3370,       3370,       23,     1656, 0xe5a98324
0,       4920,       4920,       40,     4560, 0x03197d07, F=0x0
1,       3393,       3393,       31,     2232, 0x15445433
0,       4960,       4960,       40,     4440, 0x1cc361a2, F=0x0
1,       3424,       3424,       31,     2232, 0x5cb348a9
0,       5000,       5000,       40,    23688, 0x16030634, F=0x0
1,       3455,       3455,       31,     2232, 0xf10347da
0,       5040,       5040,       40,    16132, 0xf0eca799, F=0x0
1,       3486,       3486,       34,     2448, 0x3e16a175
0,       5080,       5080,       40,    29896, 0x0c0988ea, F=0x0
1,       3520,       3520,       35,     2520, 0x17e3ca2b
0,       5120,       5120,       40,    19956, 0x0093aa0b, F=0x0
1,       3555,       3555,       27,     1944, 0x35c2de84
0,       5160,       5160,       40,    16392, 0x8829a9ca, F=0x0
1,       3582,       3582,       27,     1944, 0x55b4db40
0,       5200,       5200,       40,    16772, 0x9a4a546d, F=0x0
1,       3609,       3609,       29,     2088, 0xdaae14b2
0,       5240,       5240,       40,     8920, 0xcd8ca203, F=0x0
1,       3638,       3638,       27,     1944, 0x92ccd37f
0,       5280,       5280,       40,     9632, 0x53c1d37b, F=0x0
1,       3665,       3665,       27,     1944, 0x70efede1
0,       5320,       5320,       40,     8976, 0xfe4da2cc, F=0x0
1,       3692,       3692,       27,     1944, 0x7601d304
0,       5360,       5360,       40,     6680, 0x35348fe0, F=0x0
1,       3719,       3719,       27,     1944, 0x3922ebc2
0,       5400,       5400,       40,     9228, 0xcbf62b0c, F=0x0
1,       3746,       3746,       30,     2160, 0xde462f2e
0,       5440,       5440,       40,     5108, 0xd1d88511, F=0x0
1,       3776,       3776,       26,     1872, 0x467ac1d2
0,       5480,       5480,       40,    10016, 0xaff4b2b2, F=0x0
1,       3802,       3802,       26,     1872, 0xa1e4cd43
0,       5520,       5520,       40,     7468, 0x23e81ab8, F=0x0
1,       3828,       3828,       26,     1872, 0x1dceccc6
0,       5560,       5560,       40,     4172, 0x253cd05b, F=0x0
1,       3854,       3854,       26,     1872, 0x2bbad2a5
0,       5600,       5600,       40,     8188, 0x7ede743f, F=0x0
1,       3880,       3880,       26,     1872, 0xc603d44d
0,       5640,       5640,       40,     2884, 0x2dec55a3, F=0x0
1,       3906,       3906,       26,     1872, 0x1b4cc261
0,       5680,       5680,       40,     3900, 0xd0666a18, F=0x0
1,       3932,       3932,       26,     1872, 0x10edd6cf
0,       5720,       5720,       40,     2996, 0x9cc99b8c, F=0x0
1,       3958,       3958,       33,     2376, 0xecdb9d61
0,       5760,       5760,       40,     2156, 0xae612776, F=0x0
1,       3991,       3991,       36,     2592, 0x5559eced
0,       5800,       5800,       40,     3988, 0x0d2c9992, F=0x0
0,       5840,       5840,       40,     1512, 0x6281fc00, F=0x0
1,       4027,       4027,       36,     2592, 0x8848dfc7
0,       5880,       5880,       40,     6544, 0xb75c2562, F=0x0
1,       4063,       4063,       36,     2592, 0x4ca2d7da
0,       5920,       5920,       40,     4108, 0xfb21efc9, F=0x0
1,       4099,       4099,       36,     2592, 0x285fd7e6
0,       5960,       5960,       40,     1096, 0x85922a37, F=0x0
0,       6000,       6000,       40,     9740, 0xe57d7647, F=0x0
1,       4135,       4135,       36,     2592, 0x2717e404
0,       6040,       6040,       40,      416, 0x61c2ea02, F=0x0
1,       4171,       4171,       36,     2592, 0xf106111a
0,       6080,       6080,       40,      336, 0x1dc5ac1c, F=0x0
1,       4207,       4207,       36,     2592, 0xd7d01119
0,       6120,       6120,       40,      204, 0x16f57017, F=0x0
1,       4243,       4243,       36,     2592, 0x550cfeda
0,       6160,       6160,       40,      112, 0x78374234, F=0x0
0,       6200,       6200,       40,       40, 0x6cb21985, F=0x0
1,       4279,       4279,       36,     2592, 0x47ad00c4
1,       4315,       4315,       36,     2592, 0x39bbf306
1,       4351,       4351,       45,     3240, 0x69addfce
1,       4396,       4396,      297,    21384, 0x254f63e0
1,       4693,       4693,      298,    21456, 0x2f7a9859
0,       6840,       6840,       40,    14420, 0x53324ca4, F=0x0
0,       6880,       6880,       40,       40, 0x10971420, F=0x0
1,       4991,       4991,      521,    37512, 0x6e962928
1,       5512,       5512,       38,     2736, 0x1dc91c69
0,       8000,       8000,       40,    24904, 0x15574f7e
1,       5550,       5550,       38,     2736, 0x023434fd
1,       5588,       5588,       38,     2736, 0x906f1541
0,       8160,       8160,       40,     1908, 0xccb2dd3c, F=0x0
1,       5626,       5626,       38,     2736, 0x85a31102
0,       8200,       8200,       40,     4676, 0xbfa42b7e, F=0x0
1,       5664,       5664,       42,     3024, 0x9296a5f3
0,       8240,       8240,       40,     3600, 0x87c9dc58, F=0x0
0,       8280,       8280,       40,     8184, 0x504a8e65, F=0x0
1,       5706,       5706,       27,     1944, 0x7bf4dedc
0,       8320,       8320,       40,     9636, 0x2efb3006, F=0x0
1,       5733,       5733,       27,     1944, 0x4196c404
1,       5760,       5760,       27,     1944, 0xcda97c7a
0,       8360,       8360,       40,     9580, 0x0fb6f4e8, F=0x0
1,       5787,       5787,       27,     1944, 0x5f4922b2
0,       8400,       8400,       40,     7840, 0xe996f564, F=0x0
1,       5814,       5814,       29,     2088, 0x37dfc157
0,       8440,       8440,       40,     4208, 0xe9c2fba2, F=0x0
0,       8480,       8480,       40,      556, 0x3f1e077c, F=0x0
